<?xml version="1.0" encoding="UTF-8"?>
<svg version="1.1" xmlns="http://www.w3.org/2000/svg" width="204" height="192">
<path d="M0 0 C67.32 0 134.64 0 204 0 C204 63.36 204 126.72 204 192 C136.68 192 69.36 192 0 192 C0 128.64 0 65.28 0 0 Z " fill="#FDFDFD" transform="translate(0,0)"/>
<path d="M0 0 C0.85529297 -0.01224609 1.71058594 -0.02449219 2.59179688 -0.03710938 C11.62162475 -0.0577726 18.82009963 2.29840903 27.0625 5.8125 C27.83722656 6.13734375 28.61195313 6.4621875 29.41015625 6.796875 C31.29642332 7.58864142 33.17977701 8.38734273 35.0625 9.1875 C35.0625 9.8475 35.0625 10.5075 35.0625 11.1875 C35.79726562 11.4453125 36.53203125 11.703125 37.2890625 11.96875 C45.73365777 15.6796144 51.33231847 23.57610478 56.0625 31.1875 C56.61035156 32.04214844 57.15820312 32.89679687 57.72265625 33.77734375 C65.98000445 47.59369295 67.6619591 66.34001561 64.0625 82 C60.04005433 93.91766461 53.46257925 104.78333992 44.0625 113.1875 C43.4025 113.1875 42.7425 113.1875 42.0625 113.1875 C42.0625 113.8475 42.0625 114.5075 42.0625 115.1875 C36.56350562 119.31423177 30.54108681 122.88156232 24.0625 125.1875 C23.14984375 125.538125 22.2371875 125.88875 21.296875 126.25 C4.9699963 131.82125719 -13.52571449 131.10225211 -29.1015625 123.6796875 C-39.44101238 118.05188567 -48.56647128 110.16596551 -54.9375 100.1875 C-54.9375 99.5275 -54.9375 98.8675 -54.9375 98.1875 C-55.5975 98.1875 -56.2575 98.1875 -56.9375 98.1875 C-57.73191072 96.31366097 -58.52289974 94.43837114 -59.3125 92.5625 C-59.75335938 91.51835938 -60.19421875 90.47421875 -60.6484375 89.3984375 C-66.92650698 73.76033715 -66.86643763 55.97534538 -60.9375 40.1875 C-58.92152038 35.67148103 -56.51109146 31.40934667 -53.9375 27.1875 C-53.2775 27.1875 -52.6175 27.1875 -51.9375 27.1875 C-51.751875 26.506875 -51.56625 25.82625 -51.375 25.125 C-45.9479152 14.03487018 -32.8171289 7.64965195 -21.9375 3.1875 C-21.14988281 2.83300781 -20.36226562 2.47851562 -19.55078125 2.11328125 C-13.23112557 -0.12552054 -6.62253428 0.00496814 0 0 Z " fill="#FBFBFB" transform="translate(101.9375,23.8125)"/>
<path d="M0 0 C0.85529297 -0.01224609 1.71058594 -0.02449219 2.59179688 -0.03710938 C11.62162475 -0.0577726 18.82009963 2.29840903 27.0625 5.8125 C27.83722656 6.13734375 28.61195313 6.4621875 29.41015625 6.796875 C31.29642332 7.58864142 33.17977701 8.38734273 35.0625 9.1875 C35.0625 9.8475 35.0625 10.5075 35.0625 11.1875 C35.79726562 11.4453125 36.53203125 11.703125 37.2890625 11.96875 C45.73365777 15.6796144 51.33231847 23.57610478 56.0625 31.1875 C56.61035156 32.04214844 57.15820312 32.89679687 57.72265625 33.77734375 C65.98000445 47.59369295 67.6619591 66.34001561 64.0625 82 C60.04005433 93.91766461 53.46257925 104.78333992 44.0625 113.1875 C43.4025 113.1875 42.7425 113.1875 42.0625 113.1875 C42.0625 113.8475 42.0625 114.5075 42.0625 115.1875 C36.56350562 119.31423177 30.54108681 122.88156232 24.0625 125.1875 C23.14984375 125.538125 22.2371875 125.88875 21.296875 126.25 C4.9699963 131.82125719 -13.52571449 131.10225211 -29.1015625 123.6796875 C-39.44101238 118.05188567 -48.56647128 110.16596551 -54.9375 100.1875 C-54.9375 99.5275 -54.9375 98.8675 -54.9375 98.1875 C-55.5975 98.1875 -56.2575 98.1875 -56.9375 98.1875 C-57.73191072 96.31366097 -58.52289974 94.43837114 -59.3125 92.5625 C-59.75335938 91.51835938 -60.19421875 90.47421875 -60.6484375 89.3984375 C-66.92650698 73.76033715 -66.86643763 55.97534538 -60.9375 40.1875 C-58.92152038 35.67148103 -56.51109146 31.40934667 -53.9375 27.1875 C-53.2775 27.1875 -52.6175 27.1875 -51.9375 27.1875 C-51.751875 26.506875 -51.56625 25.82625 -51.375 25.125 C-45.9479152 14.03487018 -32.8171289 7.64965195 -21.9375 3.1875 C-21.14988281 2.83300781 -20.36226562 2.47851562 -19.55078125 2.11328125 C-13.23112557 -0.12552054 -6.62253428 0.00496814 0 0 Z M-40.9375 21.1875 C-40.9375 21.8475 -40.9375 22.5075 -40.9375 23.1875 C-41.5253125 23.42210938 -42.113125 23.65671875 -42.71875 23.8984375 C-51.02188926 28.72244447 -55.7027593 41.52122816 -58.29150391 50.37353516 C-61.54612638 64.55070016 -59.94387928 79.52331445 -52.9375 92.1875 C-52.12539063 93.68990234 -52.12539063 93.68990234 -51.296875 95.22265625 C-43.29975952 108.80654166 -31.07161512 118.12650931 -16 122.71484375 C-3.19599053 125.64909592 9.95960175 125.49484501 22.0625 120.1875 C22.96355469 119.8059375 23.86460938 119.424375 24.79296875 119.03125 C26.9006023 118.11630831 28.98706937 117.17280545 31.0625 116.1875 C31.0625 115.5275 31.0625 114.8675 31.0625 114.1875 C31.78824219 113.93613281 32.51398438 113.68476563 33.26171875 113.42578125 C45.24695233 108.12687045 52.11858611 95.29290509 57.0625 83.8125 C59.21566952 77.34571723 59.51928657 71.16707083 59.5625 64.375 C59.56894531 63.40836426 59.57539063 62.44172852 59.58203125 61.44580078 C59.47006602 55.18328409 58.38974934 49.98829803 56.0625 44.1875 C55.7730249 43.42783936 55.4835498 42.66817871 55.18530273 41.88549805 C48.74757227 25.41584775 35.278285 15.27542719 19.6796875 8.08984375 C-0.74096218 1.0492914 -25.12519006 7.23377984 -40.9375 21.1875 Z " fill="#5A5A5A" transform="translate(101.9375,23.8125)"/>
<path d="M0 0 C1.11375 0.03673828 1.11375 0.03673828 2.25 0.07421875 C4 0.3125 4 0.3125 5 1.3125 C5.79627062 9.49711765 4.67117679 16.51484149 2.2109375 24.296875 C0.42467836 30.00469157 -0.82772139 35.85117873 -2.16088867 41.67773438 C-3.54260222 47.63463197 -5.17730774 53.47551718 -7 59.3125 C-10.1171875 60.09765625 -10.1171875 60.09765625 -14 60.3125 C-17.1328125 58.37109375 -17.1328125 58.37109375 -20.125 55.75 C-22.9950967 53.10448978 -22.9950967 53.10448978 -26 51.3125 C-29.67240184 52.06920528 -30.89227392 53.19938762 -33.5 55.9375 C-36 58.3125 -36 58.3125 -38.75 58.6875 C-41 58.3125 -41 58.3125 -42 57.3125 C-42.3236528 51.98174807 -42.11370134 46.57562675 -41.75 41.25 C-41.68039063 40.18072266 -41.68039063 40.18072266 -41.609375 39.08984375 C-41 37.3125 -41 37.3125 -38.953125 36.06640625 C-38.30859375 35.81761719 -37.6640625 35.56882813 -37 35.3125 C-37 34.6525 -37 33.9925 -37 33.3125 C-33.53846154 30.3125 -33.53846154 30.3125 -31 30.3125 C-31 29.6525 -31 28.9925 -31 28.3125 C-29.53190495 27.00096237 -27.99804216 25.76255925 -26.4375 24.5625 C-23.20687432 22.06299187 -20.11478644 19.53134817 -17.125 16.75 C-16.09375 15.945625 -15.0625 15.14125 -14 14.3125 C-11.8046875 14.66015625 -11.8046875 14.66015625 -10 15.3125 C-10.47645608 19.79587358 -11.80004868 21.53081257 -15.1875 24.4375 C-16.07695313 25.21351562 -16.96640625 25.98953125 -17.8828125 26.7890625 C-20.1044893 28.63295253 -22.39548033 30.34208942 -24.7421875 32.0234375 C-31.54151196 36.54918226 -31.54151196 36.54918226 -36.11328125 43.01171875 C-36.4826071 45.7199818 -36.4826071 45.7199818 -36 49.3125 C-35.54109375 48.86777344 -35.0821875 48.42304687 -34.609375 47.96484375 C-33.99578125 47.39894531 -33.3821875 46.83304688 -32.75 46.25 C-32.14671875 45.68152344 -31.5434375 45.11304688 -30.921875 44.52734375 C-29 43.3125 -29 43.3125 -27.0078125 43.453125 C-24.74186576 44.42298547 -23.05579323 45.59354754 -21.125 47.125 C-17.83369875 49.68284648 -14.49415007 52.04130245 -11 54.3125 C-10.89042969 53.67578369 -10.78085938 53.03906738 -10.66796875 52.38305664 C-9.32753875 44.78660552 -7.7025944 37.27260148 -6 29.75 C-4.24141762 21.95390831 -2.51908155 14.15922641 -1 6.3125 C-14.71887636 11.05906185 -28.38794173 15.89754762 -41.88671875 21.2421875 C-43.11720947 21.72751953 -43.11720947 21.72751953 -44.37255859 22.22265625 C-45.96724567 22.85325494 -47.56011277 23.48848088 -49.15087891 24.12890625 C-54.66791131 26.3125 -54.66791131 26.3125 -58 26.3125 C-58 26.9725 -58 27.6325 -58 28.3125 C-57.22914062 28.51746094 -56.45828125 28.72242187 -55.6640625 28.93359375 C-54.66117188 29.20300781 -53.65828125 29.47242187 -52.625 29.75 C-51.62726563 30.01683594 -50.62953125 30.28367187 -49.6015625 30.55859375 C-47 31.3125 -47 31.3125 -45 32.3125 C-45.33 33.9625 -45.66 35.6125 -46 37.3125 C-52.57300256 36.71495431 -58.95572092 34.97234967 -65 32.3125 C-67 29.3125 -67 29.3125 -66.9375 26.8125 C-65.65611061 23.39546164 -64.23698715 22.98196975 -61 21.3125 C-58.17774599 20.19412097 -55.31504921 19.21576973 -52.4375 18.25 C-46.96755036 16.46058326 -46.96755036 16.46058326 -41.72265625 14.12890625 C-40 13.3125 -40 13.3125 -36 13.3125 C-36 12.6525 -36 11.9925 -36 11.3125 C-35.07102905 11.02584473 -35.07102905 11.02584473 -34.12329102 10.73339844 C-31.26790577 9.84875862 -28.41522328 8.95568493 -25.5625 8.0625 C-24.10166992 7.61197266 -24.10166992 7.61197266 -22.61132812 7.15234375 C-17.9690733 5.69290578 -13.50283318 4.15683782 -9.08984375 2.09765625 C-5.94890364 0.64788316 -3.51959853 -0.18226492 0 0 Z " fill="#555555" transform="translate(130,59.6875)"/>
<path d="M0 0 C-0.61600092 9.55763922 -2.82013112 18.64272864 -5 27.9375 C-5.37292999 29.55261113 -5.74532994 31.16784474 -6.1171875 32.78320312 C-6.47348289 34.32302676 -6.83023699 35.86274433 -7.1875 37.40234375 C-7.35419189 38.12107162 -7.52088379 38.8397995 -7.69262695 39.58030701 C-8.36286015 42.4354462 -9.07192836 45.21578509 -10 48 C-14.65340769 45.85227337 -18.7826768 43.07240377 -22.625 39.6875 C-24.79464068 37.80089755 -24.79464068 37.80089755 -27.0625 38 C-29.51621701 39.26643459 -31.08979743 41.02612401 -33 43 C-33.66 43 -34.32 43 -35 43 C-35.79729821 39.25883146 -36.09095924 37.58977541 -35 34 C-31.11167972 29.76645502 -26.59386516 26.43132069 -22 23 C-19.90016093 21.39413296 -17.82354356 19.76530647 -15.75 18.125 C-14.85796875 17.44695312 -13.9659375 16.76890625 -13.046875 16.0703125 C-10.7042497 13.70086324 -10.29630765 12.27078061 -10 9 C-13.20300394 9.59067135 -14.97164201 10.55288391 -17.3828125 12.72265625 C-17.99253906 13.26083984 -18.60226563 13.79902344 -19.23046875 14.35351562 C-19.85566406 14.91748047 -20.48085937 15.48144531 -21.125 16.0625 C-22.37369155 17.18276197 -23.62611993 18.29887715 -24.8828125 19.41015625 C-25.43340332 19.90652588 -25.98399414 20.40289551 -26.55126953 20.91430664 C-28 22 -28 22 -30 22 C-30 22.66 -30 23.32 -30 24 C-33.46153846 27 -33.46153846 27 -36 27 C-36 27.66 -36 28.32 -36 29 C-36.99 29.66 -37.98 30.32 -39 31 C-39.57993699 33.19454681 -39.57993699 33.19454681 -39.6875 35.625 C-39.78611328 36.85089844 -39.78611328 36.85089844 -39.88671875 38.1015625 C-39.92410156 38.72804687 -39.96148437 39.35453125 -40 40 C-40.33 40 -40.66 40 -41 40 C-41.33 37.03 -41.66 34.06 -42 31 C-43.485 32.485 -43.485 32.485 -45 34 C-45.99 33.67 -46.98 33.34 -48 33 C-48 32.34 -48 31.68 -48 31 C-47.01 30.67 -46.02 30.34 -45 30 C-44.26676204 27.98491642 -44.26676204 27.98491642 -44 26 C-44.60328125 25.87882812 -45.2065625 25.75765625 -45.828125 25.6328125 C-46.62734375 25.46523437 -47.4265625 25.29765625 -48.25 25.125 C-49.03890625 24.96257812 -49.8278125 24.80015625 -50.640625 24.6328125 C-52.96831144 24.00849925 -54.89031952 23.15161458 -57 22 C-57 21.34 -57 20.68 -57 20 C-41.34027456 13.99797487 -25.67925107 8.07007144 -9.80859375 2.64404297 C-8.23899166 2.08510529 -6.69448627 1.45663371 -5.15625 0.81640625 C-3 0 -3 0 0 0 Z " fill="#F4F4F4" transform="translate(129,66)"/>
<path d="M0 0 C1.11375 0.03673828 1.11375 0.03673828 2.25 0.07421875 C4 0.3125 4 0.3125 5 1.3125 C5.46087967 8.61154779 5.19093165 15.32890536 3 22.3125 C2.67 22.3125 2.34 22.3125 2 22.3125 C1.505 18.8475 1.505 18.8475 1 15.3125 C1.66 15.3125 2.32 15.3125 3 15.3125 C3 13.3325 3 11.3525 3 9.3125 C1.68 8.9825 0.36 8.6525 -1 8.3125 C-1 7.6525 -1 6.9925 -1 6.3125 C-2.69769531 6.97958984 -2.69769531 6.97958984 -4.4296875 7.66015625 C-5.91130333 8.23217249 -7.39308271 8.80376522 -8.875 9.375 C-9.62136719 9.66955078 -10.36773437 9.96410156 -11.13671875 10.26757812 C-13.06975563 11.00770486 -15.03365032 11.66605735 -17 12.3125 C-17.66 11.9825 -18.32 11.6525 -19 11.3125 C-18.67 10.6525 -18.34 9.9925 -18 9.3125 C-19.72926874 9.62443464 -21.45841044 9.93707362 -23.1875 10.25 C-24.15042969 10.42402344 -25.11335938 10.59804687 -26.10546875 10.77734375 C-28.74239972 11.2648735 -31.3719905 11.77921105 -34 12.3125 C-33.67 13.3025 -33.34 14.2925 -33 15.3125 C-36.375 15.9375 -36.375 15.9375 -40 16.3125 C-40.66 15.6525 -41.32 14.9925 -42 14.3125 C-40.02 13.9825 -38.04 13.6525 -36 13.3125 C-36 12.6525 -36 11.9925 -36 11.3125 C-35.38068604 11.12139648 -34.76137207 10.93029297 -34.12329102 10.73339844 C-31.26790577 9.84875862 -28.41522328 8.95568493 -25.5625 8.0625 C-24.58861328 7.76214844 -23.61472656 7.46179688 -22.61132812 7.15234375 C-17.9690733 5.69290578 -13.50283318 4.15683782 -9.08984375 2.09765625 C-5.94890364 0.64788316 -3.51959853 -0.18226492 0 0 Z " fill="#5A5A5A" transform="translate(130,59.6875)"/>
<path d="M0 0 C-0.33 0.66 -0.66 1.32 -1 2 C-0.34 2.33 0.32 2.66 1 3 C-0.32 3 -1.64 3 -3 3 C-3 4.32 -3 5.64 -3 7 C-2.22914062 7.20496094 -1.45828125 7.40992187 -0.6640625 7.62109375 C0.33882812 7.89050781 1.34171875 8.15992187 2.375 8.4375 C3.37273437 8.70433594 4.37046875 8.97117187 5.3984375 9.24609375 C8 10 8 10 10 11 C9.67 12.65 9.34 14.3 9 16 C2.42699744 15.40245431 -3.95572092 13.65984967 -10 11 C-12 8 -12 8 -11.9375 5.5 C-10.68158506 2.15089349 -9.19363744 1.48541276 -6 0 C-2.44067797 -1.22033898 -2.44067797 -1.22033898 0 0 Z " fill="#545454" transform="translate(75,81)"/>
<path d="M0 0 C-0.66 0.33 -1.32 0.66 -2 1 C-2.33 1.99 -2.66 2.98 -3 4 C-5.360588 5.09115721 -7.53162222 5.92321667 -10 6.6875 C-10.70318359 6.90881592 -11.40636719 7.13013184 -12.13085938 7.3581543 C-20.06436456 9.63124708 -27.82760578 9.45514572 -36 9 C-36 8.67 -36 8.34 -36 8 C-33.03 8 -30.06 8 -27 8 C-27 7.01 -27 6.02 -27 5 C-23.81984579 3.95525295 -20.63004704 2.9436766 -17.4375 1.9375 C-16.54224609 1.64294922 -15.64699219 1.34839844 -14.72460938 1.04492188 C-9.33070463 -0.63449902 -5.52313694 -1.32585592 0 0 Z " fill="#4D4D4D" transform="translate(131,144)"/>
<path d="M0 0 C0.93134766 0.00322266 1.86269531 0.00644531 2.82226562 0.00976562 C4.26182617 0.02233398 4.26182617 0.02233398 5.73046875 0.03515625 C6.70951172 0.03966797 7.68855469 0.04417969 8.69726562 0.04882812 C11.10422986 0.06056941 13.51106732 0.07699206 15.91796875 0.09765625 C15.91796875 1.08765625 15.91796875 2.07765625 15.91796875 3.09765625 C16.57796875 3.75765625 17.23796875 4.41765625 17.91796875 5.09765625 C8.01796875 5.09765625 -1.88203125 5.09765625 -12.08203125 5.09765625 C-11.42203125 3.77765625 -10.76203125 2.45765625 -10.08203125 1.09765625 C-6.73909516 0.0198945 -3.49268384 -0.02142751 0 0 Z " fill="#525252" transform="translate(98.08203125,24.90234375)"/>
<path d="M0 0 C3.64176266 6.31238861 3.12792504 13.31916151 3.0625 20.375 C3.05798828 21.30183594 3.05347656 22.22867188 3.04882812 23.18359375 C3.03711574 25.45579709 3.02071372 27.72786388 3 30 C2.34 28.68 1.68 27.36 1 26 C0.01 26 -0.98 26 -2 26 C-2.33 26 -2.66 26 -3 26 C-3.28509844 22.60616308 -3.52181945 19.21060061 -3.75 15.8125 C-3.83121094 14.85279297 -3.91242188 13.89308594 -3.99609375 12.90429688 C-4.44413244 5.71078676 -4.44413244 5.71078676 -2.015625 1.82421875 C-1.35046875 1.22222656 -0.6853125 0.62023437 0 0 Z " fill="#5F5F5F" transform="translate(164,70)"/>
<path d="M0 0 C0.92232422 0.00451172 1.84464844 0.00902344 2.79492188 0.01367188 C5.05085048 0.02536062 7.30663967 0.04174545 9.5625 0.0625 C9.5625 0.3925 9.5625 0.7225 9.5625 1.0625 C7.59216797 1.15337891 7.59216797 1.15337891 5.58203125 1.24609375 C3.84634459 1.33053256 2.11066802 1.41517888 0.375 1.5 C-0.92147461 1.55897461 -0.92147461 1.55897461 -2.24414062 1.61914062 C-6.39664122 1.82597016 -10.38287862 2.06353531 -14.4375 3.0625 C-14.4375 3.7225 -14.4375 4.3825 -14.4375 5.0625 C-13.1175 5.7225 -11.7975 6.3825 -10.4375 7.0625 C-12.18534829 7.42713732 -13.93590502 7.7788078 -15.6875 8.125 C-16.66203125 8.32222656 -17.6365625 8.51945312 -18.640625 8.72265625 C-21.305619 9.04647535 -22.92621723 8.91753199 -25.4375 8.0625 C-25.4375 7.4025 -25.4375 6.7425 -25.4375 6.0625 C-26.0975 5.7325 -26.7575 5.4025 -27.4375 5.0625 C-25.92103179 4.40648256 -24.39903825 3.7632336 -22.875 3.125 C-22.02808594 2.76535156 -21.18117188 2.40570312 -20.30859375 2.03515625 C-13.65499308 -0.21892071 -6.93659525 -0.06492134 0 0 Z " fill="#707070" transform="translate(102.4375,23.9375)"/>
<path d="M0 0 C0.66 0 1.32 0 2 0 C2.45137856 3.54561133 2.05336518 4.91385495 0.13671875 8.0078125 C-0.67152344 9.03648438 -1.47976562 10.06515625 -2.3125 11.125 C-3.11300781 12.15882812 -3.91351563 13.19265625 -4.73828125 14.2578125 C-6.42305824 16.30049548 -8.07407531 18.19249786 -10 20 C-10.33 17.69 -10.66 15.38 -11 13 C-10.01 12.34 -9.02 11.68 -8 11 C-8.33 10.34 -8.66 9.68 -9 9 C-6.49710313 5.12050985 -6.49710313 5.12050985 -3.9375 4.5 C-1.78364885 4.18476569 -1.78364885 4.18476569 -0.75 1.9375 C-0.37875 0.9784375 -0.37875 0.9784375 0 0 Z " fill="#535353" transform="translate(58,42)"/>
<path d="M0 0 C0.79664063 0.00644531 1.59328125 0.01289062 2.4140625 0.01953125 C4.375 0.1875 4.375 0.1875 5.375 1.1875 C5.83587967 8.48654779 5.56593165 15.20390536 3.375 22.1875 C3.045 22.1875 2.715 22.1875 2.375 22.1875 C2.045 19.8775 1.715 17.5675 1.375 15.1875 C2.035 15.1875 2.695 15.1875 3.375 15.1875 C3.375 13.2075 3.375 11.2275 3.375 9.1875 C2.4159375 9.0328125 2.4159375 9.0328125 1.4375 8.875 C0.4165625 8.5346875 0.4165625 8.5346875 -0.625 8.1875 C-1.66949911 5.05400268 -1.55923645 4.19781744 -0.625 1.1875 C-2.935 1.5175 -5.245 1.8475 -7.625 2.1875 C-4.45557116 0.07454744 -3.62870047 -0.06500929 0 0 Z " fill="#6B6B6B" transform="translate(129.625,59.8125)"/>
<path d="M0 0 C-0.33 0.66 -0.66 1.32 -1 2 C-0.34 2.33 0.32 2.66 1 3 C-0.32 3 -1.64 3 -3 3 C-3 4.32 -3 5.64 -3 7 C-2.34 7.33 -1.68 7.66 -1 8 C-2.65 7.67 -4.3 7.34 -6 7 C-6 7.66 -6 8.32 -6 9 C-7.98 9.99 -7.98 9.99 -10 11 C-12 8 -12 8 -11.9375 5.5 C-10.68158506 2.15089349 -9.19363744 1.48541276 -6 0 C-2.44067797 -1.22033898 -2.44067797 -1.22033898 0 0 Z " fill="#5D5D5D" transform="translate(75,81)"/>
<path d="M0 0 C0.33 0 0.66 0 1 0 C1.62599202 7.82490023 -0.67485871 14.60937233 -3 22 C-3.66 22 -4.32 22 -5 22 C-4.979375 20.948125 -4.95875 19.89625 -4.9375 18.8125 C-4.85361198 15.14415183 -4.85361198 15.14415183 -5.6875 12.25 C-5.790625 11.5075 -5.89375 10.765 -6 10 C-4.625 8.5 -4.625 8.5 -3 7 C-2.63557767 5.33985384 -2.30027117 3.67293936 -2 2 C-1.34 1.34 -0.68 0.68 0 0 Z " fill="#4E4E4E" transform="translate(127,93)"/>
<path d="M0 0 C2.5 1.3125 2.5 1.3125 5 3 C5 3.99 5 4.98 5 6 C2.37493198 6.02690844 -0.24986173 6.04679404 -2.875 6.0625 C-3.62136719 6.07087891 -4.36773437 6.07925781 -5.13671875 6.08789062 C-10.7734375 6.11328125 -10.7734375 6.11328125 -13 5 C-13 4.34 -13 3.68 -13 3 C-8.23947038 1.02612187 -5.03511899 0.9929762 0 2 C0 1.34 0 0.68 0 0 Z " fill="#B7B7B7" transform="translate(149,186)"/>
<path d="M0 0 C0.66 0.33 1.32 0.66 2 1 C1.67 1.66 1.34 2.32 1 3 C2.32 3 3.64 3 5 3 C3.73948004 6.78155989 2.43553394 7.25618367 -0.9375 9.25 C-2.28134766 10.06210938 -2.28134766 10.06210938 -3.65234375 10.890625 C-4.42707031 11.25671875 -5.20179688 11.6228125 -6 12 C-6.66 11.67 -7.32 11.34 -8 11 C-7.67 10.01 -7.34 9.02 -7 8 C-7.99 7.34 -8.98 6.68 -10 6 C-7.69 5.34 -5.38 4.68 -3 4 C-3 3.34 -3 2.68 -3 2 C-2.01 1.34 -1.02 0.68 0 0 Z " fill="#5B5B5B" transform="translate(136,136)"/>
<path d="M0 0 C0.66 0 1.32 0 2 0 C1.85769192 1.41702513 1.71099254 2.8336096 1.5625 4.25 C1.48128906 5.03890625 1.40007813 5.8278125 1.31640625 6.640625 C1.02365007 8.82364639 0.57935581 10.8773182 0 13 C-0.66 13 -1.32 13 -2 13 C-2.66 14.32 -3.32 15.64 -4 17 C-4.33 17 -4.66 17 -5 17 C-5.10251672 11.87416389 -5.03590199 7.05002222 -4 2 C-3.01 2.33 -2.02 2.66 -1 3 C-0.67 2.01 -0.34 1.02 0 0 Z " fill="#515151" transform="translate(43,68)"/>
<path d="M0 0 C0.66 0.99 1.32 1.98 2 3 C-3.11236781 5.07434732 -7.46330893 5.24424065 -12.875 5.125 C-14.050625 5.11146484 -14.050625 5.11146484 -15.25 5.09765625 C-17.16680055 5.07428063 -19.08344191 5.03841653 -21 5 C-21 4.67 -21 4.34 -21 4 C-18.03 4 -15.06 4 -12 4 C-12 3.01 -12 2.02 -12 1 C-3.50572831 -1.40671031 -3.50572831 -1.40671031 0 0 Z " fill="#474747" transform="translate(116,148)"/>
<path d="M0 0 C0.74958984 0.00902344 1.49917969 0.01804688 2.27148438 0.02734375 C4.11862654 0.05087422 5.96560412 0.08674439 7.8125 0.125 C6.8225 0.62 6.8225 0.62 5.8125 1.125 C5.8125 2.115 5.8125 3.105 5.8125 4.125 C3.54372896 4.37375561 1.27230265 4.59839246 -1 4.8125 C-2.26457031 4.94011719 -3.52914062 5.06773437 -4.83203125 5.19921875 C-8.1875 5.125 -8.1875 5.125 -10.13671875 3.64453125 C-10.48347656 3.14308594 -10.83023438 2.64164063 -11.1875 2.125 C-7.39586973 -0.40275351 -4.37875969 -0.09943035 0 0 Z " fill="#535353" transform="translate(98.1875,147.875)"/>
<path d="M0 0 C-0.19140625 2.35546875 -0.19140625 2.35546875 -1 5 C-3.21484375 6.36328125 -3.21484375 6.36328125 -5.9375 7.3125 C-7.28134766 7.80169922 -7.28134766 7.80169922 -8.65234375 8.30078125 C-11 9 -11 9 -13 9 C-12.5 6.1875 -12.5 6.1875 -11 3 C-7.48015683 0.92458491 -4.06897255 0 0 0 Z " fill="#4F4F4F" transform="translate(129,61)"/>
<path d="M0 0 C0.33 0 0.66 0 1 0 C1.33 3.96 1.66 7.92 2 12 C2.66 10.68 3.32 9.36 4 8 C4.08107583 9.93681161 4.13922475 11.8745934 4.1875 13.8125 C4.22230469 14.89144531 4.25710937 15.97039062 4.29296875 17.08203125 C4 20 4 20 2.48828125 21.88671875 C1.99714844 22.25410156 1.50601563 22.62148437 1 23 C-1.55975195 18.2029076 -1.03828449 13.92381452 -0.625 8.6875 C-0.56828125 7.85154297 -0.5115625 7.01558594 -0.453125 6.15429688 C-0.31240504 4.10213072 -0.1576007 2.05093882 0 0 Z " fill="#4D4D4D" transform="translate(162,84)"/>
<path d="M0 0 C2.37163433 0.9299562 4.67615944 1.95199347 7 3 C3.49223439 5.3385104 1.18333056 5.77589301 -3 6 C-5.6479735 4.23468433 -5.9769986 3.06900421 -7 0 C-4.22964542 -1.38517729 -2.98568368 -0.79618231 0 0 Z " fill="#5A5A5A" transform="translate(77,142)"/>
<path d="M0 0 C0.66 0.66 1.32 1.32 2 2 C1.625 4.125 1.625 4.125 1 6 C-3.05606165 5.53199289 -6.46588679 5.12046792 -10 3 C-10 2.34 -10 1.68 -10 1 C-6.24391637 -0.82438348 -4.01050192 -1.30070333 0 0 Z " fill="#E8E8E8" transform="translate(82,85)"/>
<path d="M0 0 C0.99 0.33 1.98 0.66 3 1 C3.33 1.99 3.66 2.98 4 4 C7.3 4.33 10.6 4.66 14 5 C14 5.66 14 6.32 14 7 C8.39 7 2.78 7 -3 7 C-3 6.34 -3 5.68 -3 5 C-2.34 5 -1.68 5 -1 5 C-0.67 3.35 -0.34 1.7 0 0 Z " fill="#C6C6C6" transform="translate(59,185)"/>
<path d="M0 0 C0.99 0.66 1.98 1.32 3 2 C2.67 4.31 2.34 6.62 2 9 C2.66 9.33 3.32 9.66 4 10 C3.67 10.99 3.34 11.98 3 13 C0.69 13.33 -1.62 13.66 -4 14 C-4 12.68 -4 11.36 -4 10 C-2.35 10 -0.7 10 1 10 C0.4740625 8.9171875 0.4740625 8.9171875 -0.0625 7.8125 C-1.10409017 4.6877295 -0.89096572 3.11838004 0 0 Z " fill="#5C5C5C" transform="translate(120,106)"/>
<path d="M0 0 C1.65 0 3.3 0 5 0 C4.67 2.31 4.34 4.62 4 7 C3.34 7 2.68 7 2 7 C2.33 8.98 2.66 10.96 3 13 C1.68 12.34 0.36 11.68 -1 11 C-1.14285714 3.57142857 -1.14285714 3.57142857 0 0 Z " fill="#4D4D4D" transform="translate(129,68)"/>
<path d="M0 0 C0.61488281 0.08378906 1.22976562 0.16757813 1.86328125 0.25390625 C3.07564453 0.40666016 3.07564453 0.40666016 4.3125 0.5625 C5.11300781 0.66691406 5.91351563 0.77132812 6.73828125 0.87890625 C9.16817116 1.14755178 9.16817116 1.14755178 12 0 C14.62843884 1.00499132 15.72403685 1.44807371 17 4 C11.72 4 6.44 4 1 4 C0.67 2.68 0.34 1.36 0 0 Z " fill="#B0B0B0" transform="translate(118,188)"/>
<path d="M0 0 C0.99 1.32 1.98 2.64 3 4 C1.68 4 0.36 4 -1 4 C0.32 4.66 1.64 5.32 3 6 C1.375 8.0625 1.375 8.0625 -1 10 C-4.25 9.75 -4.25 9.75 -7 9 C-6.02180976 7.68677212 -5.0424189 6.37443848 -4.0625 5.0625 C-3.51722656 4.33160156 -2.97195312 3.60070312 -2.41015625 2.84765625 C-1 1 -1 1 0 0 Z " fill="#585858" transform="translate(149,124)"/>
<path d="M0 0 C3.73487777 0.4979837 5.81237635 0.87491756 9 3 C8.01 3.495 8.01 3.495 7 4 C7 4.99 7 5.98 7 7 C4.03 6.67 1.06 6.34 -2 6 C-1.34 5.34 -0.68 4.68 0 4 C-0.33 3.34 -0.66 2.68 -1 2 C-0.67 1.34 -0.34 0.68 0 0 Z " fill="#5F5F5F" transform="translate(114,25)"/>
<path d="M0 0 C0.66 0.33 1.32 0.66 2 1 C1.67 1.66 1.34 2.32 1 3 C2.65 3 4.3 3 6 3 C3.42215154 5.64752004 1.08351902 7.94432065 -2 10 C-2.185625 9.071875 -2.185625 9.071875 -2.375 8.125 C-2.87197356 5.80879168 -2.87197356 5.80879168 -5 4 C-3.35 2.68 -1.7 1.36 0 0 Z " fill="#616161" transform="translate(104,84)"/>
<path d="M0 0 C0 0.66 0 1.32 0 2 C1.32 2.33 2.64 2.66 4 3 C0.27034861 5.03435531 -1.66905042 6 -6 6 C-6.33 5.01 -6.66 4.02 -7 3 C-3.375 0 -3.375 0 0 0 Z " fill="#4F4F4F" transform="translate(77,30)"/>
<path d="M0 0 C-0.66 0.66 -1.32 1.32 -2 2 C-1.67 2.66 -1.34 3.32 -1 4 C-4.13498292 5.85776765 -6.37471432 6.20140476 -10 6 C-9.05358987 2.73058318 -8.58815053 1.33177722 -5.5625 -0.375 C-3 -1 -3 -1 0 0 Z " fill="#4B4B4B" transform="translate(104,71)"/>
<path d="M0 0 C-4.455 1.485 -4.455 1.485 -9 3 C-8.67 3.99 -8.34 4.98 -8 6 C-11.375 6.625 -11.375 6.625 -15 7 C-15.66 6.34 -16.32 5.68 -17 5 C-15.02 4.67 -13.04 4.34 -11 4 C-11 3.34 -11 2.68 -11 2 C-9.54494642 1.47007308 -8.08581873 0.9513211 -6.625 0.4375 C-5.40683594 0.00244141 -5.40683594 0.00244141 -4.1640625 -0.44140625 C-2 -1 -2 -1 0 0 Z " fill="#747474" transform="translate(105,69)"/>
<path d="M0 0 C-0.33 0.99 -0.66 1.98 -1 3 C-5.05431692 4.15837626 -7.21812119 3.83691257 -11 2 C-10.67 1.01 -10.34 0.02 -10 -1 C-6.36375521 -2.75078453 -3.58607386 -1.38552854 0 0 Z " fill="#575757" transform="translate(124,147)"/>
<path d="M0 0 C0.33 0 0.66 0 1 0 C1 3.63 1 7.26 1 11 C0.34 11 -0.32 11 -1 11 C-1.66 11.99 -2.32 12.98 -3 14 C-3 10.37 -3 6.74 -3 3 C-2.34 3 -1.68 3 -1 3 C-0.67 2.01 -0.34 1.02 0 0 Z " fill="#494949" transform="translate(41,85)"/>
<path d="M0 0 C2.125 0.375 2.125 0.375 4 1 C3.64950425 4.24208567 3.43778819 5.61527704 0.9375 7.8125 C0.298125 8.204375 -0.34125 8.59625 -1 9 C-2.25640898 6.48718205 -2.20872719 4.78302919 -2 2 C-1.34 1.34 -0.68 0.68 0 0 Z " fill="#5C5C5C" transform="translate(116,74)"/>
<path d="M0 0 C0.66 0.33 1.32 0.66 2 1 C2 1.99 2 2.98 2 4 C3.32 3.67 4.64 3.34 6 3 C4.68 4.32 3.36 5.64 2 7 C1.67 6.34 1.34 5.68 1 5 C-0.65 5 -2.3 5 -4 5 C-4 5.66 -4 6.32 -4 7 C-4.99 6.67 -5.98 6.34 -7 6 C-4.74259377 3.66475218 -2.7194239 1.81294927 0 0 Z " fill="#626262" transform="translate(69,32)"/>
<path d="M0 0 C0.66 0 1.32 0 2 0 C2.36923077 7.50769231 2.36923077 7.50769231 0.5 10 C0.005 10.33 -0.49 10.66 -1 11 C-1.66 10.67 -2.32 10.34 -3 10 C-3 8.02 -3 6.04 -3 4 C-2.01 4 -1.02 4 0 4 C0 2.68 0 1.36 0 0 Z " fill="#474747" transform="translate(92,99)"/>
<path d="M0 0 C0.66 0 1.32 0 2 0 C2.66 1.32 3.32 2.64 4 4 C-0.95 4 -5.9 4 -11 4 C-11 3.34 -11 2.68 -11 2 C-7.37 2 -3.74 2 0 2 C0 1.34 0 0.68 0 0 Z " fill="#AEAEAE" transform="translate(85,188)"/>
<path d="M0 0 C1.65 0.33 3.3 0.66 5 1 C5 3.33333333 5 5.66666667 5 8 C1.62496331 6.8141763 -0.64722731 5.72426311 -3 3 C-1.35 3 0.3 3 2 3 C1.34 2.01 0.68 1.02 0 0 Z " fill="#626262" transform="translate(67,138)"/>
<path d="M0 0 C0.8353125 0.556875 0.8353125 0.556875 1.6875 1.125 C0.6975 1.62 0.6975 1.62 -0.3125 2.125 C-0.3125 2.785 -0.3125 3.445 -0.3125 4.125 C-2.6225 3.795 -4.9325 3.465 -7.3125 3.125 C-7.3125 2.465 -7.3125 1.805 -7.3125 1.125 C-2.88173077 -1.09038462 -2.88173077 -1.09038462 0 0 Z " fill="#CCCCCC" transform="translate(143.3125,187.875)"/>
<path d="M0 0 C1.32 0.33 2.64 0.66 4 1 C4.625 2.875 4.625 2.875 5 5 C4.34 5.66 3.68 6.32 3 7 C2.34 6.67 1.68 6.34 1 6 C1 5.34 1 4.68 1 4 C0.34 4 -0.32 4 -1 4 C-1 4.66 -1 5.32 -1 6 C-1.66 5.67 -2.32 5.34 -3 5 C-2.01 3.35 -1.02 1.7 0 0 Z " fill="#636363" transform="translate(154,116)"/>
<path d="M0 0 C3.125 0.375 3.125 0.375 6 1 C6 1.66 6 2.32 6 3 C5.34 3 4.68 3 4 3 C4 3.66 4 4.32 4 5 C1.5625 4.625 1.5625 4.625 -1 4 C-1.33 3.34 -1.66 2.68 -2 2 C-1.34 1.34 -0.68 0.68 0 0 Z " fill="#4E4E4E" transform="translate(128,31)"/>
<path d="M0 0 C0 0.66 0 1.32 0 2 C1.32 2.33 2.64 2.66 4 3 C2.35 4.32 0.7 5.64 -1 7 C-1.66 6.67 -2.32 6.34 -3 6 C-2.67 5.01 -2.34 4.02 -2 3 C-2.99 2.34 -3.98 1.68 -5 1 C-3 0 -3 0 0 0 Z " fill="#646464" transform="translate(131,141)"/>
<path d="M0 0 C2.62187494 1.04874998 3.79371361 1.64931313 5.25 4.125 C5.4975 4.74375 5.745 5.3625 6 6 C4.35 6.33 2.7 6.66 1 7 C0.67 4.69 0.34 2.38 0 0 Z " fill="#4F4F4F" transform="translate(59,131)"/>
<path d="M0 0 C0.33 0 0.66 0 1 0 C2.0070238 5.03511899 1.97387813 8.23947038 0 13 C-0.66 13 -1.32 13 -2 13 C-1.34 8.71 -0.68 4.42 0 0 Z " fill="#696969" transform="translate(124,88)"/>
<path d="M0 0 C0.99 0.33 1.98 0.66 3 1 C3.33 2.98 3.66 4.96 4 7 C2.33333333 7 0.66666667 7 -1 7 C-0.67 4.69 -0.34 2.38 0 0 Z " fill="#484848" transform="translate(40,97)"/>
<path d="M0 0 C4.455 0.99 4.455 0.99 9 2 C5.31109101 3.22963633 1.86300794 3.55670401 -2 4 C-2.33 3.34 -2.66 2.68 -3 2 C-2.01 2 -1.02 2 0 2 C0 1.34 0 0.68 0 0 Z " fill="#494949" transform="translate(69,88)"/>
<path d="M0 0 C0.66 0.33 1.32 0.66 2 1 C2.125 3.875 2.125 3.875 2 7 C1.34 7.66 0.68 8.32 0 9 C-1.5625 6.6875 -1.5625 6.6875 -3 4 C-2.67 3.01 -2.34 2.02 -2 1 C-1.67 1.66 -1.34 2.32 -1 3 C-0.67 2.01 -0.34 1.02 0 0 Z " fill="#484848" transform="translate(157,56)"/>
<path d="M0 0 C0 0.99 0 1.98 0 3 C0.66 3.33 1.32 3.66 2 4 C-0.31 3.67 -2.62 3.34 -5 3 C-5 2.34 -5 1.68 -5 1 C-5.66 0.67 -6.32 0.34 -7 0 C-4.3333581 -1.33332095 -2.83319697 -0.67102033 0 0 Z " fill="#636363" transform="translate(82,29)"/>
<path d="M0 0 C2.5 1.3125 2.5 1.3125 5 3 C5 3.99 5 4.98 5 6 C3.68 6 2.36 6 1 6 C1 5.01 1 4.02 1 3 C-0.32 2.67 -1.64 2.34 -3 2 C-2.01 2 -1.02 2 0 2 C0 1.34 0 0.68 0 0 Z " fill="#C3C3C3" transform="translate(149,186)"/>
<path d="M0 0 C1.32 0.33 2.64 0.66 4 1 C3.67 2.65 3.34 4.3 3 6 C2.67 5.34 2.34 4.68 2 4 C-0.52733235 3.34444881 -0.52733235 3.34444881 -3 3 C-2.01 2.67 -1.02 2.34 0 2 C0 1.34 0 0.68 0 0 Z " fill="#5C5C5C" transform="translate(81,91)"/>
<path d="M0 0 C-2.91765 1.9451 -4.62537285 2.45276317 -8 3 C-8 2.01 -8 1.02 -8 0 C-5.13822943 -1.43088528 -3.06624227 -0.59991697 0 0 Z " fill="#4C4C4C" transform="translate(84,145)"/>
<path d="M0 0 C1.2065625 0.0309375 1.2065625 0.0309375 2.4375 0.0625 C1.95667969 0.46082031 1.47585937 0.85914062 0.98046875 1.26953125 C-0.93641825 3.49700247 -1.03991643 4.85084669 -1.25 7.75 C-1.34861328 8.96236328 -1.34861328 8.96236328 -1.44921875 10.19921875 C-1.48660156 10.81410156 -1.52398437 11.42898437 -1.5625 12.0625 C-1.8925 12.0625 -2.2225 12.0625 -2.5625 12.0625 C-2.75651633 10.25068595 -2.94254375 8.43801468 -3.125 6.625 C-3.22941406 5.61566406 -3.33382812 4.60632813 -3.44140625 3.56640625 C-3.48136719 2.74011719 -3.52132812 1.91382812 -3.5625 1.0625 C-2.5625 0.0625 -2.5625 0.0625 0 0 Z " fill="#DBDBDB" transform="translate(90.5625,93.9375)"/>
<path d="M0 0 C0.66 0.33 1.32 0.66 2 1 C-3.14285714 6.57142857 -3.14285714 6.57142857 -7 7 C-3.375 1.125 -3.375 1.125 0 0 Z " fill="#656565" transform="translate(120,62)"/>
<path d="M0 0 C0.99 0.33 1.98 0.66 3 1 C3 1.66 3 2.32 3 3 C3.66 3.33 4.32 3.66 5 4 C1.25 5.125 1.25 5.125 -1 4 C-1.33 4.66 -1.66 5.32 -2 6 C-2.66 5.34 -3.32 4.68 -4 4 C-3.34 4 -2.68 4 -2 4 C-2 3.34 -2 2.68 -2 2 C-1.34 2 -0.68 2 0 2 C0 1.34 0 0.68 0 0 Z " fill="#626262" transform="translate(134,32)"/>
<path d="M0 0 C1.32 0 2.64 0 4 0 C3.625 2.9375 3.625 2.9375 3 6 C2.01 6.495 2.01 6.495 1 7 C0.67 4.69 0.34 2.38 0 0 Z " fill="#565656" transform="translate(153,120)"/>
<path d="M0 0 C2.475 0.99 2.475 0.99 5 2 C4.67 2.99 4.34 3.98 4 5 C2.68 5 1.36 5 0 5 C0 3.35 0 1.7 0 0 Z " fill="#D0D0D0" transform="translate(112,187)"/>
<path d="M0 0 C0.78375 0.04125 1.5675 0.0825 2.375 0.125 C1.385 1.61 1.385 1.61 0.375 3.125 C-0.285 3.125 -0.945 3.125 -1.625 3.125 C-1.625 3.785 -1.625 4.445 -1.625 5.125 C-2.285 5.125 -2.945 5.125 -3.625 5.125 C-3.955 4.135 -4.285 3.145 -4.625 2.125 C-2.625 0.125 -2.625 0.125 0 0 Z " fill="#5A5A5A" transform="translate(145.625,133.875)"/>
<path d="M0 0 C0.99 0 1.98 0 3 0 C3 1.65 3 3.3 3 5 C1.35 5 -0.3 5 -2 5 C-1.34 3.35 -0.68 1.7 0 0 Z " fill="#4D4D4D" transform="translate(107,82)"/>
<path d="M0 0 C0.99 0.33 1.98 0.66 3 1 C2.67 2.32 2.34 3.64 2 5 C0.35 4.67 -1.3 4.34 -3 4 C-2.67 3.01 -2.34 2.02 -2 1 C-1.67 1.33 -1.34 1.66 -1 2 C-0.67 1.34 -0.34 0.68 0 0 Z " fill="#505050" transform="translate(46,113)"/>
<path d="M0 0 C1.32 0 2.64 0 4 0 C3.67 1.98 3.34 3.96 3 6 C2.01 5.67 1.02 5.34 0 5 C-0.75 3 -0.75 3 -1 1 C-0.67 0.67 -0.34 0.34 0 0 Z " fill="#6E6E6E" transform="translate(161,105)"/>
<path d="M0 0 C2.0625 0.4375 2.0625 0.4375 4 1 C4 1.66 4 2.32 4 3 C3.34 3 2.68 3 2 3 C2 4.32 2 5.64 2 7 C1.34 7 0.68 7 0 7 C-0.38133299 5.0085944 -0.71325582 3.00720923 -1 1 C-0.67 0.67 -0.34 0.34 0 0 Z " fill="#555555" transform="translate(40,103)"/>
<path d="M0 0 C0.99 0.33 1.98 0.66 3 1 C3.33 2.65 3.66 4.3 4 6 C2.68 6 1.36 6 0 6 C-0.66 4.68 -1.32 3.36 -2 2 C-1.34 1.67 -0.68 1.34 0 1 C0 0.67 0 0.34 0 0 Z " fill="#4A4A4A" transform="translate(145,42)"/>
<path d="M0 0 C0.99 1.32 1.98 2.64 3 4 C0.09399739 5.25664978 -1.79604584 6 -5 6 C-3.35 4.02 -1.7 2.04 0 0 Z " fill="#5F5F5F" transform="translate(149,124)"/>
<path d="M0 0 C1.65 0 3.3 0 5 0 C5 1.33333333 5 2.66666667 5 4 C3.35 4 1.7 4 0 4 C0 2.68 0 1.36 0 0 Z " fill="#6B6B6B" transform="translate(116,116)"/>
<path d="M0 0 C1.25541557 3.76624671 0.37061958 5.37188934 -1 9 C-1.66 9 -2.32 9 -3 9 C-2.25 2.25 -2.25 2.25 0 0 Z " fill="#505050" transform="translate(125,106)"/>
<path d="M0 0 C0 2.62113708 -0.31292445 4.50935112 -1 7 C-2.32 6.34 -3.64 5.68 -5 5 C-3.35 3.35 -1.7 1.7 0 0 Z " fill="#696969" transform="translate(57,41)"/>
</svg>
