<?xml version="1.0" encoding="UTF-8"?>
<svg version="1.1" xmlns="http://www.w3.org/2000/svg" width="225" height="225">
<path d="M0 0 C74.25 0 148.5 0 225 0 C225 74.25 225 148.5 225 225 C150.75 225 76.5 225 0 225 C0 150.75 0 76.5 0 0 Z " fill="#FEFEFE" transform="translate(0,0)"/>
<path d="M0 0 C-0.29097694 5.46588994 -3.50704121 8.02397747 -7.22265625 11.61328125 C-7.84273056 12.22769577 -8.46280487 12.84211029 -9.10166931 13.47514343 C-11.07940583 15.43053458 -13.07060817 17.37154064 -15.0625 19.3125 C-16.40781348 20.63774625 -17.7522257 21.96390809 -19.09570312 23.29101562 C-22.38678128 26.53805073 -25.69000432 29.77225596 -29 33 C-28.10539062 33.07476562 -27.21078125 33.14953125 -26.2890625 33.2265625 C-25.07992187 33.35804687 -23.87078125 33.48953125 -22.625 33.625 C-21.44164063 33.74101563 -20.25828125 33.85703125 -19.0390625 33.9765625 C-9.58435431 35.80301737 -2.43309043 42.95787963 4.10546875 49.5390625 C4.91494461 50.34233978 5.72442047 51.14561707 6.5584259 51.97323608 C8.24974614 53.65750484 9.93603593 55.34683917 11.61743164 57.04101562 C14.20315639 59.64074116 16.81222404 62.21536446 19.42382812 64.7890625 C21.06916012 66.43344449 22.71309264 68.07922822 24.35546875 69.7265625 C25.53014961 70.88135605 25.53014961 70.88135605 26.7285614 72.05947876 C27.43712784 72.78057831 28.14569427 73.50167786 28.87573242 74.24462891 C29.50509201 74.87495026 30.1344516 75.50527161 30.78288269 76.1546936 C32 78 32 78 31.69526672 80.23471069 C31.4658287 80.81725616 31.23639069 81.39980164 31 82 C27.24849497 80.71005623 24.92858076 79.28639442 22.17871094 76.43994141 C21.46737 75.71223541 20.75602905 74.98452942 20.02313232 74.23477173 C19.26784241 73.44831268 18.51255249 72.66185364 17.734375 71.8515625 C16.10573495 70.18984322 14.47681999 68.52839335 12.84765625 66.8671875 C10.29789896 64.24926013 7.75235787 61.62743908 5.21240234 59 C2.75160041 56.46031089 0.27525392 53.93658518 -2.203125 51.4140625 C-2.95031799 50.63165192 -3.69751099 49.84924133 -4.46734619 49.04312134 C-9.8537907 43.58182139 -15.13150668 40.01572882 -22.71484375 38.43359375 C-30.17242957 38.44670023 -36.22725527 40.73855127 -41.90234375 45.64453125 C-43.02289481 46.77016417 -44.12035573 47.91942984 -45.18925476 49.09422302 C-46.94160719 50.93854262 -48.75783734 52.57531587 -50.69458008 54.22290039 C-55.05487514 58.00298005 -59.17002303 61.99143802 -63.26171875 66.05859375 C-64.01540237 66.8065773 -64.769086 67.55456085 -65.54560852 68.32521057 C-67.12594312 69.89616493 -68.70488018 71.46852632 -70.2824707 73.04223633 C-72.68448811 75.43450034 -75.09697364 77.81587551 -77.50976562 80.19726562 C-79.05274156 81.73371426 -80.59508113 83.27080229 -82.13671875 84.80859375 C-82.85139816 85.51092636 -83.56607758 86.21325897 -84.30241394 86.93687439 C-90.98449268 93.64868296 -96.10123969 99.98140662 -96.25 109.75 C-96.0200028 127.14615194 -77.45063477 139.86887491 -65.94067383 151.46435547 C-63.76895131 153.65393246 -61.60608544 155.85172471 -59.45043945 158.05712891 C-56.82331859 160.74476371 -54.18146935 163.4170735 -51.5287571 166.07944489 C-50.5297739 167.08691742 -49.53587955 168.0994656 -48.54755211 169.11739349 C-41.63377697 176.22713915 -35.53713243 181.04914437 -25.5625 182.5 C-15.47088736 181.08363331 -9.04521862 177.0475425 -2.19140625 169.69921875 C-1.41739975 168.90344925 -0.64339325 168.10767975 0.15406799 167.28779602 C2.59950081 164.77068009 5.02023025 162.23165168 7.4375 159.6875 C9.88164646 157.12757186 12.33074851 154.57334659 14.7959137 152.03364563 C16.32342977 150.45899581 17.8386755 148.87233143 19.3401947 147.27287292 C20.02513504 146.56496109 20.71007538 145.85704926 21.41577148 145.12768555 C22.01324692 144.49799362 22.61072235 143.8683017 23.2263031 143.2195282 C25 142 25 142 27.22401428 142.30451965 C27.81008957 142.53402817 28.39616486 142.76353668 29 143 C28.41499047 146.35643307 27.37422384 148.00377094 24.98413086 150.40405273 C24.34934311 151.04829697 23.71455536 151.6925412 23.06053162 152.35630798 C22.36895462 153.04181229 21.67737762 153.72731659 20.96484375 154.43359375 C20.2527626 155.14854507 19.54068146 155.8634964 18.80702209 156.60011292 C17.29666814 158.11250876 15.7825174 159.62112099 14.26489258 161.1262207 C11.96021154 163.4149457 9.67183137 165.71907888 7.38476562 168.02539062 C5.91241837 169.49575363 4.4391398 170.96518476 2.96484375 172.43359375 C2.28743637 173.11707382 1.61002899 173.80055389 0.91209412 174.50474548 C-6.39780085 181.70940244 -14.02210501 187.21220765 -24.5625 187.5 C-25.67753906 187.5515625 -26.79257813 187.603125 -27.94140625 187.65625 C-39.82891861 186.56614964 -48.53017595 177.3287983 -56.40625 169.28515625 C-57.54426889 168.14355006 -58.68341115 167.00306273 -59.8236084 165.8636322 C-62.19263796 163.48994666 -64.5513614 161.10664676 -66.90234375 158.71508789 C-69.9038806 155.66238152 -72.92499395 152.6300029 -75.95334625 149.60392094 C-78.29978796 147.25666093 -80.63831239 144.90164514 -82.97428894 142.54397392 C-84.08561533 141.42316165 -85.19871429 140.30410387 -86.31367493 139.18690681 C-87.87108894 137.62293365 -89.41821162 136.04944043 -90.96289062 134.47290039 C-92.28093689 133.13770103 -92.28093689 133.13770103 -93.62561035 131.77552795 C-99.46526668 124.94929815 -102.50690638 117.36060937 -102.24609375 108.32421875 C-100.96277161 96.20395409 -92.63574938 88.33389807 -84.38012695 80.13720703 C-83.53550903 79.29069077 -82.69089111 78.4441745 -81.82067871 77.57200623 C-79.52498025 75.27325835 -77.22491885 72.97899447 -74.92260003 70.68688059 C-72.50637918 68.27950493 -70.09549383 65.86679627 -67.68388367 63.45480347 C-63.63990854 59.41176144 -59.59209883 55.3725918 -55.54174805 51.3359375 C-50.86108784 46.67104691 -46.18571972 42.00090543 -41.51330405 37.32775795 C-36.52807431 32.34185294 -31.53904764 27.35976068 -26.54888892 22.37878942 C-25.11401526 20.94604542 -23.67985208 19.5125935 -22.24584389 18.07898331 C-19.57696719 15.41226821 -16.9048279 12.74886795 -14.23168945 10.08642578 C-13.4383873 9.29267044 -12.64508514 8.4989151 -11.82774353 7.68110657 C-11.10025909 6.95788712 -10.37277466 6.23466766 -9.62324524 5.48953247 C-8.99223561 4.86019869 -8.36122599 4.23086491 -7.71109486 3.5824604 C-5.07974835 1.14892983 -3.65117177 0 0 0 Z " fill="#0F0F0F" transform="translate(132,19)"/>
<path d="M0 0 C1.13795344 0.00138269 1.13795344 0.00138269 2.29889584 0.00279331 C3.16692837 0.00141865 4.0349609 0.00004398 4.92929745 -0.00137234 C5.88882824 0.00222294 6.84835903 0.00581821 7.83696651 0.00952244 C8.84173031 0.00937641 9.8464941 0.00923038 10.88170528 0.00907993 C14.22024817 0.00977953 17.55873604 0.01757409 20.89726925 0.02539158 C23.20512518 0.02725559 25.51298151 0.02867957 27.82083797 0.0296793 C33.90854126 0.03350578 39.99622086 0.04333718 46.08391476 0.05438328 C52.29057654 0.0645946 58.49724212 0.06917632 64.70390987 0.0742197 C76.89207135 0.08495933 89.08021521 0.10203731 101.268363 0.12304783 C101.763363 2.10304783 101.763363 2.10304783 102.268363 4.12304783 C99.9744469 5.27000588 98.7049915 5.24643435 96.15553951 5.24330235 C95.29454647 5.24467701 94.43355343 5.24605167 93.54646969 5.24746799 C92.59988491 5.24387272 91.65330013 5.24027744 90.67803097 5.23657322 C89.18529659 5.23679226 89.18529659 5.23679226 87.66240597 5.23701572 C84.36176557 5.23631714 81.06118108 5.22852726 77.7605505 5.22070408 C75.47654406 5.21883971 73.19253722 5.21741589 70.90853024 5.21641636 C64.88824522 5.2125927 58.86798421 5.20276369 52.8477087 5.19171238 C46.70798219 5.18149501 40.56825181 5.17691804 34.42851925 5.17187595 C22.37512327 5.1611413 10.32174513 5.14406668 -1.731637 5.12304783 C-2.294137 3.18554783 -2.294137 3.18554783 -2.731637 1.12304783 C-1.731637 0.12304783 -1.731637 0.12304783 0 0 Z " fill="#151515" transform="translate(92.7316370010376,126.87695217132568)"/>
</svg>
